<svg xmlns="http://www.w3.org/2000/svg" viewBox="0 0 720 360" role="img" aria-labelledby="title">
  <title id="title">Four house items: a fridge, a shelf, an architect measuring a room, and a basement</title>
  <rect width="720" height="360" rx="28" fill="#fffefa"/>
  <g stroke="#e4e1d8" stroke-width="3"><path d="M180 18v324M360 18v324M540 18v324"/></g>
  <g font-family="Arial" font-weight="700" font-size="20" text-anchor="middle" fill="#142a3b">
    <g><circle cx="32" cy="32" r="20" fill="#dff3ee"/><text x="32" y="39">1</text></g><g><circle cx="212" cy="32" r="20" fill="#fbe8e1"/><text x="212" y="39">2</text></g><g><circle cx="392" cy="32" r="20" fill="#fbf1d3"/><text x="392" y="39">3</text></g><g><circle cx="572" cy="32" r="20" fill="#e7eef8"/><text x="572" y="39">4</text></g>
  </g>
  <g transform="translate(42 75)"><rect x="20" y="22" width="78" height="220" rx="11" fill="#e7eef8" stroke="#547aa5" stroke-width="6"/><path d="M20 107h78" stroke="#547aa5" stroke-width="6"/><path d="M83 57v25M83 139v30" stroke="#142a3b" stroke-width="6" stroke-linecap="round"/><rect x="35" y="188" width="48" height="36" rx="6" fill="#dff3ee"/></g>
  <g transform="translate(203 82)"><path d="M22 54h135M22 126h135M22 198h135" stroke="#9b7455" stroke-width="12" stroke-linecap="round"/><path d="M33 36v180M146 36v180" stroke="#142a3b" stroke-width="8"/><rect x="50" y="82" width="32" height="32" rx="5" fill="#e9795f"/><circle cx="117" cy="101" r="18" fill="#e8b949"/><rect x="61" y="149" width="58" height="35" rx="5" fill="#1f8a7b"/></g>
  <g transform="translate(375 76)"><path d="M12 216V52h137v164" fill="#f3f1eb" stroke="#9b7455" stroke-width="7"/><path d="M62 52v164M12 132h137" stroke="#e4e1d8" stroke-width="5"/><circle cx="101" cy="78" r="21" fill="#d8a77c"/><path d="M80 76q21-28 42 1" fill="#142a3b"/><path d="M101 101v68M101 125L60 154M101 125l42 22" stroke="#547aa5" stroke-width="12" stroke-linecap="round"/><path d="M32 181h106" stroke="#e9795f" stroke-width="7" stroke-dasharray="8 6"/><path d="M32 168v26M138 168v26" stroke="#e9795f" stroke-width="4"/></g>
  <g transform="translate(558 72)"><path d="M10 110L80 45l70 65" fill="#e9795f" stroke="#142a3b" stroke-width="6"/><path d="M27 103v55h106v-55" fill="#fbf1d3" stroke="#142a3b" stroke-width="6"/><path d="M18 174h124v75H18z" fill="#83949d" stroke="#142a3b" stroke-width="6"/><path d="M57 249v-47h47v47" fill="#5c6d78"/><path d="M31 188h98" stroke="#fff" stroke-width="4" stroke-dasharray="8 6"/></g>
</svg>
